<svg t="1711894282824" class="icon" viewBox="0 0 1024 1024" version="1.1" xmlns="http://www.w3.org/2000/svg" p-id="3790" width="16" height="16"><path d="M84.48 881.28c-2.56 0-5.12-1.28-6.4-3.2-1.28-1.92-1.92-5.12-0.64-7.04 5.76-12.8 6.4-25.6 2.56-38.4-0.64-2.56 0-4.48 1.28-7.04 1.28-1.92 3.84-3.2 6.4-3.2l397.44-0.64c7.68 0 15.36 3.2 20.48 8.32 5.76 5.76 8.32 12.8 8.32 20.48 0 16-13.44 29.44-29.44 29.44l-400 1.28z m12.8-43.52c1.28 9.6 0.64 19.2-1.92 28.16l389.76-0.64c7.68 0 14.08-6.4 14.08-14.08 0-7.68-6.4-14.08-14.08-14.08l-387.84 0.64z" fill="#211D1C" p-id="3791"></path><path d="M62.08 906.88c-1.92 0-3.84-0.64-5.12-1.92-1.28-1.28-1.92-3.2-1.92-5.12v-25.6c0-1.92 0.64-3.84 1.92-5.12 1.28-1.28 3.2-1.92 5.12-1.92h25.6c4.48 0 7.68 3.2 7.68 7.68s-3.2 7.68-7.68 7.68h-17.92v10.24l400-0.64c9.6 0 16-1.92 20.48-6.4 8.32-8.32 8.32-27.52 8.32-48.64v-9.6c0-4.48 3.2-7.68 7.68-7.68s7.68 3.2 7.68 7.68v9.6c0 24.96 0.64 46.72-12.8 59.52-7.04 7.04-17.28 10.88-31.36 10.88l-407.68-0.64z" fill="#211D1C" p-id="3792"></path><path d="M542.08 906.24c-14.08 0-23.68-3.2-31.36-10.88-12.8-12.8-12.8-34.56-12.8-59.52v-9.6c0-4.48 3.2-7.68 7.68-7.68s7.68 3.2 7.68 7.68v9.6c0 21.76 0 40.32 8.32 48.64 4.48 4.48 10.88 6.4 20.48 6.4l400-0.64v-10.24h-17.92c-4.48 0-7.68-3.2-7.68-7.68s3.2-7.68 7.68-7.68h25.6c1.92 0 3.84 0.64 5.12 1.92 1.28 1.28 1.92 3.2 1.92 5.12v25.6c0 4.48-3.2 7.68-7.68 7.68l-407.04 1.28z" fill="#211D1C" p-id="3793"></path><path d="M506.24 858.88c-4.48 0-7.68-3.2-7.68-7.68l-0.64-678.4c0-3.84-1.28-7.04-4.48-10.24-2.56-2.56-6.4-3.84-10.24-3.84l-389.12 0.64 0.64 671.36c0 4.48-3.2 7.68-7.68 7.68s-7.68-3.2-7.68-7.68V151.04c0-1.92 0.64-3.84 1.92-5.12 1.28-1.28 3.2-1.92 5.12-1.92l396.8-0.64c7.68 0 15.36 3.2 20.48 8.32 5.76 5.76 8.32 12.8 8.32 20.48l1.92 679.04c0 4.48-3.84 7.68-7.68 7.68z" fill="#211D1C" p-id="3794"></path><path d="M506.24 858.88c-4.48 0-7.68-3.2-7.68-7.68l-0.64-678.4c0-7.68 3.2-15.36 8.32-20.48 5.76-5.76 12.8-8.32 20.48-8.32l393.6-0.64c1.92 0 3.84 0.64 5.12 1.92 1.28 1.28 1.92 3.2 1.92 5.12v76.16c0 4.48-3.2 7.68-7.68 7.68s-7.68-3.2-7.68-7.68V158.08l-385.92 0.64c-7.68 0-14.08 6.4-14.08 14.08l1.92 678.4c0 4.48-3.84 7.68-7.68 7.68zM921.6 837.12c-4.48 0-7.68-3.2-7.68-7.68v-19.2c0-4.48 3.2-7.68 7.68-7.68s7.68 3.2 7.68 7.68v19.2c0 3.84-3.84 7.68-7.68 7.68z" fill="#211D1C" p-id="3795"></path><path d="M528.64 880.64c-7.68 0-15.36-3.2-20.48-8.32-5.76-5.76-8.32-12.8-8.32-20.48 0-7.68 3.2-15.36 8.32-20.48 5.76-5.76 12.8-8.32 20.48-8.32l392.96-0.64c2.56 0 4.48 1.28 5.76 2.56s1.92 3.84 1.92 6.4c-2.56 12.8-0.64 25.6 5.76 39.04 1.28 2.56 0.64 5.12-0.64 7.04-1.28 1.92-3.84 3.2-6.4 3.2H528.64z m0-43.52c-3.84 0-7.04 1.28-10.24 4.48-2.56 2.56-3.84 6.4-3.84 10.24 0 3.84 1.28 7.04 4.48 10.24 2.56 2.56 6.4 3.84 10.24 3.84l387.84-0.64c-3.2-9.6-4.48-19.2-3.84-28.16H528.64zM62.08 881.28c-4.48 0-7.68-3.2-7.68-7.68L53.76 199.04c0-1.92 0.64-3.84 1.92-5.12 1.92-1.28 3.84-1.92 5.76-1.92h25.6c4.48 0 7.68 3.2 7.68 7.68s-3.2 7.68-7.68 7.68h-17.92l0.64 666.88c0 3.84-3.84 7.04-7.68 7.04zM949.76 880.64c-4.48 0-7.68-3.2-7.68-7.68v-62.72c0-4.48 3.2-7.68 7.68-7.68s7.68 3.2 7.68 7.68v62.72c-0.64 3.84-3.84 7.68-7.68 7.68zM949.12 260.48c-4.48 0-7.68-3.2-7.68-7.68v-46.72h-17.92c-4.48 0-7.68-3.2-7.68-7.68s3.2-7.68 7.68-7.68h25.6c4.48 0 7.68 3.2 7.68 7.68v54.4c-0.64 3.84-3.84 7.68-7.68 7.68zM871.68 391.04c-0.64 0-1.92 0-2.56-0.64-3.84-1.28-5.76-5.76-4.48-9.6l49.28-129.92c1.28-3.2 3.84-5.12 7.04-5.12 3.2 0 5.76 1.92 7.04 5.12l49.28 129.92c1.28 3.84-0.64 8.32-4.48 9.6-3.84 1.28-8.32-0.64-9.6-4.48L920.96 275.2l-41.6 111.36c-1.28 2.56-4.48 4.48-7.68 4.48z" fill="#211D1C" p-id="3796"></path><path d="M920.96 325.12c-9.6 0-19.2-2.56-24.96-8.32-3.2-2.56-3.2-7.68-0.64-10.88s7.68-3.2 10.88-0.64c6.4 5.76 23.04 5.76 29.44 0 3.2-2.56 7.68-2.56 10.88 0.64 2.56 3.2 2.56 7.68-0.64 10.88-5.76 5.12-15.36 8.32-24.96 8.32zM941.44 724.48c-4.48 0-7.68-3.2-7.68-7.68V383.36c0-4.48 3.2-7.68 7.68-7.68s7.68 3.2 7.68 7.68V716.8c-0.64 4.48-3.84 7.68-7.68 7.68zM901.76 724.48c-4.48 0-7.68-3.2-7.68-7.68V383.36c0-4.48 3.2-7.68 7.68-7.68s7.68 3.2 7.68 7.68V716.8c-0.64 4.48-3.84 7.68-7.68 7.68z" fill="#211D1C" p-id="3797"></path><path d="M872.32 724.48c-1.92 0-3.84-0.64-5.12-1.92-1.28-1.28-1.92-3.2-1.92-5.12V384c0-4.48 3.2-7.68 7.68-7.68h97.92c1.92 0 3.84 0.64 5.12 1.92 1.28 1.28 1.92 3.2 1.92 5.12V716.8c0 4.48-3.2 7.68-7.68 7.68h-97.92z m7.04-333.44v318.08h83.2V391.04h-83.2zM889.6 791.04c-13.44 0-24.96-11.52-24.96-25.6v-26.88c0-4.48 3.2-7.68 7.68-7.68h97.92c4.48 0 7.68 3.2 7.68 7.68v26.88c0 14.08-11.52 25.6-24.96 25.6H889.6z m-9.6-44.8v19.2c0 5.76 4.48 10.24 9.6 10.24h64c5.12 0 9.6-5.12 9.6-10.24v-19.2h-83.2z" fill="#211D1C" p-id="3798"></path><path d="M970.24 746.24c-4.48 0-7.68-3.2-7.68-7.68s3.2-7.68 7.68-7.68l0.64-0.64c0-1.28-1.28-4.48-2.56-6.4-3.2-0.64-5.76-3.84-5.76-7.68 0-4.48 3.2-7.68 7.68-7.68 10.24 0 16 13.44 16 21.12 0 4.48-1.92 8.32-4.48 10.88-3.2 3.84-7.04 5.76-11.52 5.76zM872.32 746.24c-8.96 0-16-7.04-16-16 0-5.12 2.56-12.8 7.04-17.28 3.2-3.2 6.4-3.84 8.96-3.84 4.48 0 7.68 3.2 7.68 7.68 0 3.84-2.56 6.4-5.76 7.68-1.28 1.28-1.92 4.48-1.92 6.4 0 0.64 0 0.64 0.64 0.64l-0.64 14.72z" fill="#211D1C" p-id="3799"></path><path d="M126.08 238.72h-1.28c-4.48 0-7.68-3.2-7.68-7.68s3.2-7.68 7.68-7.68h1.28c4.48 0 7.68 3.2 7.68 7.68s-3.84 7.68-7.68 7.68zM144.64 238.72c-4.48 0-7.68-3.2-7.68-7.68s3.2-7.68 7.68-7.68h3.2c4.48 0 7.68 3.2 7.68 7.68s-3.2 7.68-7.68 7.68h-3.2z m24.32 0h-3.2c-4.48 0-7.68-3.2-7.68-7.68s3.2-7.68 7.68-7.68h3.2c4.48 0 7.68 3.2 7.68 7.68s-3.84 7.68-7.68 7.68z m18.56 0c-4.48 0-7.68-3.2-7.68-7.68s3.2-7.68 7.68-7.68h3.2c4.48 0 7.68 3.2 7.68 7.68s-3.2 7.68-7.68 7.68h-3.2z m24.32 0h-3.2c-4.48 0-7.68-3.2-7.68-7.68s3.2-7.68 7.68-7.68h3.2c4.48 0 7.68 3.2 7.68 7.68s-3.84 7.68-7.68 7.68z m21.12 0H230.4c-4.48 0-7.68-3.2-7.68-7.68s3.2-7.68 7.68-7.68h3.2c4.48 0 7.68 3.2 7.68 7.68-0.64 4.48-3.84 7.68-8.32 7.68z m18.56 0c-4.48 0-7.68-3.2-7.68-7.68s3.2-7.68 7.68-7.68h3.2c4.48 0 7.68 3.2 7.68 7.68s-3.2 7.68-7.68 7.68h-3.2z m24.32 0h-3.2c-4.48 0-7.68-3.2-7.68-7.68s3.2-7.68 7.68-7.68h3.2c4.48 0 7.68 3.2 7.68 7.68s-3.2 7.68-7.68 7.68z m18.56 0c-4.48 0-7.68-3.2-7.68-7.68s3.2-7.68 7.68-7.68h3.2c4.48 0 7.68 3.2 7.68 7.68s-3.2 7.68-7.68 7.68H294.4z m21.76 0c-4.48 0-7.68-3.2-7.68-7.68s3.2-7.68 7.68-7.68h3.2c4.48 0 7.68 3.2 7.68 7.68s-3.2 7.68-7.68 7.68h-3.2z m24.32 0h-3.2c-4.48 0-7.68-3.2-7.68-7.68s3.2-7.68 7.68-7.68h3.2c4.48 0 7.68 3.2 7.68 7.68s-3.84 7.68-7.68 7.68z m18.56 0c-4.48 0-7.68-3.2-7.68-7.68s3.2-7.68 7.68-7.68h3.2c4.48 0 7.68 3.2 7.68 7.68s-3.2 7.68-7.68 7.68h-3.2z m21.12 0c-4.48 0-7.68-3.2-7.68-7.68s3.2-7.68 7.68-7.68h3.2c4.48 0 7.68 3.2 7.68 7.68s-3.2 7.68-7.68 7.68h-3.2z m24.32 0h-3.2c-4.48 0-7.68-3.2-7.68-7.68s3.2-7.68 7.68-7.68h3.2c4.48 0 7.68 3.2 7.68 7.68s-3.2 7.68-7.68 7.68z m18.56 0c-4.48 0-7.68-3.2-7.68-7.68s3.2-7.68 7.68-7.68h3.2c4.48 0 7.68 3.2 7.68 7.68s-3.2 7.68-7.68 7.68h-3.2z m24.32 0h-3.2c-4.48 0-7.68-3.2-7.68-7.68s3.2-7.68 7.68-7.68h3.2c4.48 0 7.68 3.2 7.68 7.68s-3.2 7.68-7.68 7.68zM465.92 238.72c-4.48 0-7.68-3.2-7.68-7.68s3.2-7.68 7.68-7.68h1.28c4.48 0 7.68 3.2 7.68 7.68s-3.2 7.68-7.68 7.68h-1.28zM126.08 292.48h-1.28c-4.48 0-7.68-3.2-7.68-7.68s3.2-7.68 7.68-7.68h1.28c4.48 0 7.68 3.2 7.68 7.68s-3.84 7.68-7.68 7.68zM144.64 292.48c-4.48 0-7.68-3.2-7.68-7.68s3.2-7.68 7.68-7.68h3.2c4.48 0 7.68 3.2 7.68 7.68s-3.2 7.68-7.68 7.68h-3.2z m24.32 0h-3.2c-4.48 0-7.68-3.2-7.68-7.68s3.2-7.68 7.68-7.68h3.2c4.48 0 7.68 3.2 7.68 7.68s-3.84 7.68-7.68 7.68z m18.56 0c-4.48 0-7.68-3.2-7.68-7.68s3.2-7.68 7.68-7.68h3.2c4.48 0 7.68 3.2 7.68 7.68s-3.2 7.68-7.68 7.68h-3.2z m24.32 0h-3.2c-4.48 0-7.68-3.2-7.68-7.68s3.2-7.68 7.68-7.68h3.2c4.48 0 7.68 3.2 7.68 7.68s-3.84 7.68-7.68 7.68z m21.12 0H230.4c-4.48 0-7.68-3.2-7.68-7.68s3.2-7.68 7.68-7.68h3.2c4.48 0 7.68 3.2 7.68 7.68-0.64 3.84-3.84 7.68-8.32 7.68z m18.56 0c-4.48 0-7.68-3.2-7.68-7.68s3.2-7.68 7.68-7.68h3.2c4.48 0 7.68 3.2 7.68 7.68s-3.2 7.68-7.68 7.68h-3.2z m24.32 0h-3.2c-4.48 0-7.68-3.2-7.68-7.68s3.2-7.68 7.68-7.68h3.2c4.48 0 7.68 3.2 7.68 7.68 0 3.84-3.2 7.68-7.68 7.68z m18.56 0c-4.48 0-7.68-3.2-7.68-7.68s3.2-7.68 7.68-7.68h3.2c4.48 0 7.68 3.2 7.68 7.68s-3.2 7.68-7.68 7.68H294.4z m21.76 0c-4.48 0-7.68-3.2-7.68-7.68s3.2-7.68 7.68-7.68h3.2c3.84 0 7.68 3.2 7.68 7.68s-3.2 7.68-7.68 7.68h-3.2z m24.32 0h-3.2c-4.48 0-7.68-3.2-7.68-7.68s3.2-7.68 7.68-7.68h3.2c4.48 0 7.68 3.2 7.68 7.68 0 3.84-3.84 7.68-7.68 7.68z m18.56-0.64c-4.48 0-7.68-3.2-7.68-7.68s3.2-7.68 7.68-7.68h3.2c4.48 0 7.68 3.2 7.68 7.68s-3.2 7.68-7.68 7.68h-3.2z m21.12 0c-4.48 0-7.68-3.2-7.68-7.68s3.2-7.68 7.68-7.68h3.2c4.48 0 7.68 3.2 7.68 7.68s-3.2 7.68-7.68 7.68h-3.2z m24.32 0h-3.2c-4.48 0-7.68-3.2-7.68-7.68s3.2-7.68 7.68-7.68h3.2c4.48 0 7.68 3.2 7.68 7.68s-3.2 7.68-7.68 7.68z m18.56 0c-4.48 0-7.68-3.2-7.68-7.68s3.2-7.68 7.68-7.68h3.2c4.48 0 7.68 3.2 7.68 7.68s-3.2 7.68-7.68 7.68h-3.2z m24.96 0h-3.2c-4.48 0-7.68-3.2-7.68-7.68s3.2-7.68 7.68-7.68h3.2c4.48 0 7.68 3.2 7.68 7.68s-3.84 7.68-7.68 7.68zM465.92 291.84c-4.48 0-7.68-3.2-7.68-7.68s3.2-7.68 7.68-7.68h1.28c4.48 0 7.68 3.2 7.68 7.68s-3.2 7.68-7.68 7.68h-1.28zM126.08 345.6h-1.28c-4.48 0-7.68-3.2-7.68-7.68s3.2-7.68 7.68-7.68h1.28c4.48 0 7.68 3.2 7.68 7.68s-3.84 7.68-7.68 7.68zM144.64 345.6c-4.48 0-7.68-3.2-7.68-7.68s3.2-7.68 7.68-7.68h3.2c4.48 0 7.68 3.2 7.68 7.68s-3.2 7.68-7.68 7.68h-3.2z m24.32 0h-3.2c-4.48 0-7.68-3.2-7.68-7.68s3.2-7.68 7.68-7.68h3.2c4.48 0 7.68 3.2 7.68 7.68S172.8 345.6 168.96 345.6z m18.56 0c-4.48 0-7.68-3.2-7.68-7.68s3.2-7.68 7.68-7.68h3.2c4.48 0 7.68 3.2 7.68 7.68s-3.2 7.68-7.68 7.68h-3.2z m24.32 0h-3.2c-4.48 0-7.68-3.2-7.68-7.68s3.2-7.68 7.68-7.68h3.2c4.48 0 7.68 3.2 7.68 7.68s-3.84 7.68-7.68 7.68z m21.12 0H230.4c-4.48 0-7.68-3.2-7.68-7.68s3.2-7.68 7.68-7.68h3.2c4.48 0 7.68 3.2 7.68 7.68-0.64 4.48-3.84 7.68-8.32 7.68z m18.56 0c-4.48 0-7.68-3.2-7.68-7.68s3.2-7.68 7.68-7.68h3.2c4.48 0 7.68 3.2 7.68 7.68s-3.2 7.68-7.68 7.68h-3.2z m24.32 0h-3.2c-4.48 0-7.68-3.2-7.68-7.68s3.2-7.68 7.68-7.68h3.2c4.48 0 7.68 3.2 7.68 7.68s-3.2 7.68-7.68 7.68z m18.56 0c-4.48 0-7.68-3.2-7.68-7.68s3.2-7.68 7.68-7.68h3.2c4.48 0 7.68 3.2 7.68 7.68s-3.2 7.68-7.68 7.68H294.4z m21.76 0c-4.48 0-7.68-3.2-7.68-7.68s3.2-7.68 7.68-7.68h3.2c4.48 0 7.68 3.2 7.68 7.68s-3.2 7.68-7.68 7.68h-3.2z m24.32 0h-3.2c-4.48 0-7.68-3.2-7.68-7.68s3.2-7.68 7.68-7.68h3.2c4.48 0 7.68 3.2 7.68 7.68s-3.2 7.68-7.68 7.68z m18.56 0c-4.48 0-7.68-3.2-7.68-7.68s3.2-7.68 7.68-7.68h3.2c4.48 0 7.68 3.2 7.68 7.68s-3.2 7.68-7.68 7.68h-3.2z m21.12 0c-4.48 0-7.68-3.2-7.68-7.68s3.2-7.68 7.68-7.68h3.2c4.48 0 7.68 3.2 7.68 7.68s-3.2 7.68-7.68 7.68h-3.2z m24.96 0h-3.2c-4.48 0-7.68-3.2-7.68-7.68s3.2-7.68 7.68-7.68h3.2c4.48 0 7.68 3.2 7.68 7.68-0.64 4.48-3.84 7.68-7.68 7.68z m17.92 0c-4.48 0-7.68-3.2-7.68-7.68s3.2-7.68 7.68-7.68h3.2c4.48 0 7.68 3.2 7.68 7.68s-3.2 7.68-7.68 7.68h-3.2z m24.96 0h-3.2c-4.48 0-7.68-3.2-7.68-7.68s3.2-7.68 7.68-7.68h3.2c4.48 0 7.68 3.2 7.68 7.68S451.84 345.6 448 345.6zM465.92 345.6c-4.48 0-7.68-3.2-7.68-7.68s3.2-7.68 7.68-7.68h1.28c4.48 0 7.68 3.2 7.68 7.68S471.68 345.6 467.2 345.6h-1.28zM126.08 399.36h-1.28c-4.48 0-7.68-3.2-7.68-7.68s3.2-7.68 7.68-7.68h1.28c4.48 0 7.68 3.2 7.68 7.68s-3.84 7.68-7.68 7.68zM144.64 399.36c-4.48 0-7.68-3.2-7.68-7.68s3.2-7.68 7.68-7.68h3.2c4.48 0 7.68 3.2 7.68 7.68s-3.2 7.68-7.68 7.68h-3.2z m24.32 0h-3.2c-4.48 0-7.68-3.2-7.68-7.68s3.2-7.68 7.68-7.68h3.2c4.48 0 7.68 3.2 7.68 7.68s-3.84 7.68-7.68 7.68z m18.56 0c-4.48 0-7.68-3.2-7.68-7.68s3.2-7.68 7.68-7.68h3.2c4.48 0 7.68 3.2 7.68 7.68s-3.2 7.68-7.68 7.68h-3.2z m24.32 0h-3.2c-4.48 0-7.68-3.2-7.68-7.68s3.2-7.68 7.68-7.68h3.2c4.48 0 7.68 3.2 7.68 7.68 0 3.84-3.2 7.68-7.68 7.68z m21.76 0H230.4c-4.48 0-7.68-3.2-7.68-7.68S225.92 384 230.4 384h3.2c4.48 0 7.68 3.2 7.68 7.68-0.64 3.84-3.84 7.68-7.68 7.68z m17.92 0c-4.48 0-7.68-3.2-7.68-7.68s3.2-7.68 7.68-7.68h3.2c4.48 0 7.68 3.2 7.68 7.68s-3.2 7.68-7.68 7.68h-3.2z m24.96 0h-3.2c-4.48 0-7.68-3.2-7.68-7.68S268.8 384 273.28 384h3.2c4.48 0 7.68 3.2 7.68 7.68-0.64 3.84-3.84 7.68-7.68 7.68z m17.92 0c-4.48 0-7.68-3.2-7.68-7.68S289.92 384 294.4 384h3.2c4.48 0 7.68 3.2 7.68 7.68s-3.2 7.68-7.68 7.68H294.4z m21.76 0c-4.48 0-7.68-3.2-7.68-7.68s3.2-7.68 7.68-7.68h3.2c4.48 0 7.68 3.2 7.68 7.68s-3.2 7.68-7.68 7.68h-3.2z m24.32 0h-3.2c-4.48 0-7.68-3.2-7.68-7.68S332.8 384 337.28 384h3.2c4.48 0 7.68 3.2 7.68 7.68 0 3.84-3.2 7.68-7.68 7.68z m18.56-0.64c-4.48 0-7.68-3.2-7.68-7.68s3.2-7.68 7.68-7.68h3.2c4.48 0 7.68 3.2 7.68 7.68s-3.2 7.68-7.68 7.68h-3.2z m21.12 0c-4.48 0-7.68-3.2-7.68-7.68s3.2-7.68 7.68-7.68h3.2c4.48 0 7.68 3.2 7.68 7.68s-3.2 7.68-7.68 7.68h-3.2z m24.96 0h-3.2c-4.48 0-7.68-3.2-7.68-7.68s3.2-7.68 7.68-7.68h3.2c4.48 0 7.68 3.2 7.68 7.68s-3.84 7.68-7.68 7.68z m17.92 0c-4.48 0-7.68-3.2-7.68-7.68s3.2-7.68 7.68-7.68h3.2c4.48 0 7.68 3.2 7.68 7.68s-3.2 7.68-7.68 7.68h-3.2c0.64 0 0 0 0 0z m24.96 0h-3.2c-4.48 0-7.68-3.2-7.68-7.68s3.2-7.68 7.68-7.68h3.2c4.48 0 7.68 3.2 7.68 7.68s-3.84 7.68-7.68 7.68zM466.56 398.72c-4.48 0-7.68-3.2-7.68-7.68s3.2-7.68 7.68-7.68h1.28c4.48 0 7.68 3.2 7.68 7.68s-3.2 7.68-7.68 7.68h-1.28z" fill="#00ABE0" p-id="3800"></path><path d="M126.08 452.48h-1.28c-4.48 0-7.68-3.2-7.68-7.68s3.2-7.68 7.68-7.68h1.28c4.48 0 7.68 3.2 7.68 7.68s-3.2 7.68-7.68 7.68zM144.64 452.48c-4.48 0-7.68-3.2-7.68-7.68s3.2-7.68 7.68-7.68h3.2c4.48 0 7.68 3.2 7.68 7.68s-3.2 7.68-7.68 7.68h-3.2z m24.32 0h-3.2c-4.48 0-7.68-3.2-7.68-7.68s3.2-7.68 7.68-7.68h3.2c4.48 0 7.68 3.2 7.68 7.68s-3.2 7.68-7.68 7.68z m18.56 0c-4.48 0-7.68-3.2-7.68-7.68s3.2-7.68 7.68-7.68h3.2c4.48 0 7.68 3.2 7.68 7.68s-3.2 7.68-7.68 7.68h-3.2z m24.32 0h-3.2c-4.48 0-7.68-3.2-7.68-7.68s3.2-7.68 7.68-7.68h3.2c4.48 0 7.68 3.2 7.68 7.68s-3.2 7.68-7.68 7.68z m21.76 0H230.4c-4.48 0-7.68-3.2-7.68-7.68s3.2-7.68 7.68-7.68h3.2c4.48 0 7.68 3.2 7.68 7.68-0.64 4.48-3.84 7.68-7.68 7.68z m17.92 0c-4.48 0-7.68-3.2-7.68-7.68s3.2-7.68 7.68-7.68h3.2c4.48 0 7.68 3.2 7.68 7.68s-3.2 7.68-7.68 7.68h-3.2z m24.96 0h-3.2c-4.48 0-7.68-3.2-7.68-7.68s3.2-7.68 7.68-7.68h3.2c4.48 0 7.68 3.2 7.68 7.68-0.64 4.48-3.84 7.68-7.68 7.68z m17.92 0c-4.48 0-7.68-3.2-7.68-7.68s3.2-7.68 7.68-7.68h3.2c4.48 0 7.68 3.2 7.68 7.68s-3.2 7.68-7.68 7.68H294.4z m21.76 0c-4.48 0-7.68-3.2-7.68-7.68s3.2-7.68 7.68-7.68h3.2c4.48 0 7.68 3.2 7.68 7.68s-3.2 7.68-7.68 7.68h-3.2z m24.32 0h-3.2c-4.48 0-7.68-3.2-7.68-7.68s3.2-7.68 7.68-7.68h3.2c4.48 0 7.68 3.2 7.68 7.68s-3.2 7.68-7.68 7.68z m18.56 0c-4.48 0-7.68-3.2-7.68-7.68s3.2-7.68 7.68-7.68h3.2c4.48 0 7.68 3.2 7.68 7.68s-3.2 7.68-7.68 7.68h-3.2z m21.76 0c-4.48 0-7.68-3.2-7.68-7.68s3.2-7.68 7.68-7.68h3.2c4.48 0 7.68 3.2 7.68 7.68s-3.2 7.68-7.68 7.68h-3.2z m24.32 0h-3.2c-4.48 0-7.68-3.2-7.68-7.68s3.2-7.68 7.68-7.68h3.2c4.48 0 7.68 3.2 7.68 7.68s-3.84 7.68-7.68 7.68z m18.56 0c-4.48 0-7.68-3.2-7.68-7.68s3.2-7.68 7.68-7.68h3.2c4.48 0 7.68 3.2 7.68 7.68s-3.2 7.68-7.68 7.68h-3.2z m24.32 0h-3.2c-4.48 0-7.68-3.2-7.68-7.68s3.2-7.68 7.68-7.68h3.2c4.48 0 7.68 3.2 7.68 7.68s-3.84 7.68-7.68 7.68zM466.56 452.48c-4.48 0-7.68-3.2-7.68-7.68s3.2-7.68 7.68-7.68h1.28c4.48 0 7.68 3.2 7.68 7.68s-3.2 7.68-7.68 7.68h-1.28z" fill="#00ABE0" p-id="3801"></path><path d="M126.08 506.24h-1.28c-4.48 0-7.68-3.2-7.68-7.68s3.2-7.68 7.68-7.68h1.28c4.48 0 7.68 3.2 7.68 7.68s-3.2 7.68-7.68 7.68zM144.64 506.24c-4.48 0-7.68-3.2-7.68-7.68s3.2-7.68 7.68-7.68h3.2c4.48 0 7.68 3.2 7.68 7.68s-3.2 7.68-7.68 7.68h-3.2z m24.32 0h-3.2c-4.48 0-7.68-3.2-7.68-7.68s3.2-7.68 7.68-7.68h3.2c4.48 0 7.68 3.2 7.68 7.68s-3.2 7.68-7.68 7.68z m18.56 0c-4.48 0-7.68-3.2-7.68-7.68s3.2-7.68 7.68-7.68h3.2c4.48 0 7.68 3.2 7.68 7.68s-3.2 7.68-7.68 7.68h-3.2z m24.32 0h-3.2c-4.48 0-7.68-3.2-7.68-7.68s3.2-7.68 7.68-7.68h3.2c4.48 0 7.68 3.2 7.68 7.68s-3.2 7.68-7.68 7.68z m21.76 0H230.4c-4.48 0-7.68-3.2-7.68-7.68s3.2-7.68 7.68-7.68h3.2c4.48 0 7.68 3.2 7.68 7.68-0.64 3.84-3.84 7.68-7.68 7.68z m17.92 0c-4.48 0-7.68-3.2-7.68-7.68s3.2-7.68 7.68-7.68h3.2c4.48 0 7.68 3.2 7.68 7.68s-3.2 7.68-7.68 7.68h-3.2c0.64 0 0.64 0 0 0z m24.96 0h-3.2c-4.48 0-7.68-3.2-7.68-7.68s3.2-7.68 7.68-7.68h3.2c4.48 0 7.68 3.2 7.68 7.68 0 3.84-3.84 7.68-7.68 7.68z m18.56 0c-4.48 0-7.68-3.2-7.68-7.68s3.2-7.68 7.68-7.68h3.2c4.48 0 7.68 3.2 7.68 7.68s-3.2 7.68-7.68 7.68h-3.2z m21.12 0c-4.48 0-7.68-3.2-7.68-7.68s3.2-7.68 7.68-7.68h3.2c4.48 0 7.68 3.2 7.68 7.68s-3.2 7.68-7.68 7.68h-3.2z m24.32 0h-3.2c-4.48 0-7.68-3.2-7.68-7.68s3.2-7.68 7.68-7.68h3.2c4.48 0 7.68 3.2 7.68 7.68 0 3.84-3.2 7.68-7.68 7.68z m18.56-0.64c-4.48 0-7.68-3.2-7.68-7.68s3.2-7.68 7.68-7.68h3.2c4.48 0 7.68 3.2 7.68 7.68s-3.2 7.68-7.68 7.68h-3.2z m21.76 0c-4.48 0-7.68-3.2-7.68-7.68s3.2-7.68 7.68-7.68h3.2c4.48 0 7.68 3.2 7.68 7.68S388.48 505.6 384 505.6h-3.2z m24.32 0h-3.2c-4.48 0-7.68-3.2-7.68-7.68s3.2-7.68 7.68-7.68h3.2c4.48 0 7.68 3.2 7.68 7.68s-3.84 7.68-7.68 7.68z m18.56 0c-4.48 0-7.68-3.2-7.68-7.68s3.2-7.68 7.68-7.68h3.2c4.48 0 7.68 3.2 7.68 7.68s-3.2 7.68-7.68 7.68h-3.2z m24.32 0h-3.2c-4.48 0-7.68-3.2-7.68-7.68s3.2-7.68 7.68-7.68h3.2c4.48 0 7.68 3.2 7.68 7.68S451.84 505.6 448 505.6zM466.56 505.6c-4.48 0-7.68-3.2-7.68-7.68s3.2-7.68 7.68-7.68h1.28c4.48 0 7.68 3.2 7.68 7.68s-3.2 7.68-7.68 7.68h-1.28z" fill="#00ABE0" p-id="3802"></path><path d="M126.08 559.36h-1.28c-4.48 0-7.68-3.2-7.68-7.68s3.2-7.68 7.68-7.68h1.28c4.48 0 7.68 3.2 7.68 7.68s-3.2 7.68-7.68 7.68zM147.84 559.36h-3.2c-4.48 0-7.68-3.2-7.68-7.68s3.2-7.68 7.68-7.68h3.2c4.48 0 7.68 3.2 7.68 7.68-0.64 4.48-3.84 7.68-7.68 7.68z m21.12 0H166.4c-4.48 0-7.68-3.2-7.68-7.68S161.92 544 166.4 544h3.2c4.48 0 7.68 3.2 7.68 7.68s-3.84 7.68-8.32 7.68z m18.56 0c-4.48 0-7.68-3.2-7.68-7.68s3.2-7.68 7.68-7.68h3.2c4.48 0 7.68 3.2 7.68 7.68s-3.2 7.68-7.68 7.68h-3.2z m24.32 0h-3.2c-4.48 0-7.68-3.2-7.68-7.68s3.2-7.68 7.68-7.68h3.2c4.48 0 7.68 3.2 7.68 7.68s-3.2 7.68-7.68 7.68z m18.56 0c-4.48 0-7.68-3.2-7.68-7.68S225.92 544 230.4 544h3.2c4.48 0 7.68 3.2 7.68 7.68s-3.2 7.68-7.68 7.68H230.4z m24.32 0h-3.2c-4.48 0-7.68-3.2-7.68-7.68s3.2-7.68 7.68-7.68h3.2c4.48 0 7.68 3.2 7.68 7.68s-3.2 7.68-7.68 7.68z m18.56 0c-4.48 0-7.68-3.2-7.68-7.68S268.8 544 273.28 544h3.2c4.48 0 7.68 3.2 7.68 7.68s-3.2 7.68-7.68 7.68h-3.2z m24.32 0H294.4c-4.48 0-7.68-3.2-7.68-7.68S289.92 544 294.4 544h3.2c4.48 0 7.68 3.2 7.68 7.68s-3.2 7.68-7.68 7.68z m21.76 0h-3.2c-4.48 0-7.68-3.2-7.68-7.68s3.2-7.68 7.68-7.68h3.2c4.48 0 7.68 3.2 7.68 7.68s-3.84 7.68-7.68 7.68z m18.56 0c-4.48 0-7.68-3.2-7.68-7.68s3.2-7.68 7.68-7.68h3.2c4.48 0 7.68 3.2 7.68 7.68s-3.2 7.68-7.68 7.68h-3.2z m24.32 0h-3.2c-4.48 0-7.68-3.2-7.68-7.68s3.2-7.68 7.68-7.68h3.2c4.48 0 7.68 3.2 7.68 7.68s-3.84 7.68-7.68 7.68z m18.56 0c-4.48 0-7.68-3.2-7.68-7.68s3.2-7.68 7.68-7.68h3.2c4.48 0 7.68 3.2 7.68 7.68s-3.2 7.68-7.68 7.68h-3.2z m24.32 0h-3.2c-4.48 0-7.68-3.2-7.68-7.68s3.2-7.68 7.68-7.68h3.2c4.48 0 7.68 3.2 7.68 7.68s-3.84 7.68-7.68 7.68z m18.56 0c-4.48 0-7.68-3.2-7.68-7.68s3.2-7.68 7.68-7.68h3.2c4.48 0 7.68 3.2 7.68 7.68s-3.2 7.68-7.68 7.68h-3.2z m24.32 0h-3.2c-4.48 0-7.68-3.2-7.68-7.68s3.2-7.68 7.68-7.68h3.2c4.48 0 7.68 3.2 7.68 7.68s-3.84 7.68-7.68 7.68zM466.56 559.36c-4.48 0-7.68-3.2-7.68-7.68s3.2-7.68 7.68-7.68h1.28c4.48 0 7.68 3.2 7.68 7.68s-3.2 7.68-7.68 7.68h-1.28z" fill="#00ABE0" p-id="3803"></path><path d="M126.08 613.12h-1.28c-4.48 0-7.68-3.2-7.68-7.68s3.2-7.68 7.68-7.68h1.28c4.48 0 7.68 3.2 7.68 7.68s-3.2 7.68-7.68 7.68zM147.84 613.12h-3.2c-4.48 0-7.68-3.2-7.68-7.68s3.2-7.68 7.68-7.68h3.2c4.48 0 7.68 3.2 7.68 7.68 0 3.84-3.84 7.68-7.68 7.68z m21.12 0H166.4c-4.48 0-7.68-3.2-7.68-7.68s3.2-7.68 7.68-7.68h3.2c4.48 0 7.68 3.2 7.68 7.68s-3.84 7.68-8.32 7.68z m18.56 0c-4.48 0-7.68-3.2-7.68-7.68s3.2-7.68 7.68-7.68h3.2c4.48 0 7.68 3.2 7.68 7.68s-3.2 7.68-7.68 7.68h-3.2z m24.32 0h-3.2c-4.48 0-7.68-3.2-7.68-7.68s3.2-7.68 7.68-7.68h3.2c4.48 0 7.68 3.2 7.68 7.68s-3.2 7.68-7.68 7.68z m18.56 0c-4.48 0-7.68-3.2-7.68-7.68s3.2-7.68 7.68-7.68h3.2c4.48 0 7.68 3.2 7.68 7.68s-3.2 7.68-7.68 7.68H230.4z m24.32 0h-3.2c-4.48 0-7.68-3.2-7.68-7.68s3.2-7.68 7.68-7.68h3.2c4.48 0 7.68 3.2 7.68 7.68s-3.2 7.68-7.68 7.68z m18.56 0c-4.48 0-7.68-3.2-7.68-7.68s3.2-7.68 7.68-7.68h3.2c4.48 0 7.68 3.2 7.68 7.68s-3.2 7.68-7.68 7.68h-3.2z m24.32 0H294.4c-4.48 0-7.68-3.2-7.68-7.68s3.2-7.68 7.68-7.68h3.2c4.48 0 7.68 3.2 7.68 7.68s-3.2 7.68-7.68 7.68z m21.76 0h-3.2c-4.48 0-7.68-3.2-7.68-7.68s3.2-7.68 7.68-7.68h3.2c4.48 0 7.68 3.2 7.68 7.68 0 3.84-3.84 7.68-7.68 7.68z m18.56 0c-4.48 0-7.68-3.2-7.68-7.68s3.2-7.68 7.68-7.68h3.2c4.48 0 7.68 3.2 7.68 7.68s-3.2 7.68-7.68 7.68h-3.2z m24.32-0.64h-3.2c-4.48 0-7.68-3.2-7.68-7.68s3.2-7.68 7.68-7.68h3.2c4.48 0 7.68 3.2 7.68 7.68s-3.84 7.68-7.68 7.68z m18.56 0c-4.48 0-7.68-3.2-7.68-7.68s3.2-7.68 7.68-7.68h3.2c4.48 0 7.68 3.2 7.68 7.68s-3.2 7.68-7.68 7.68h-3.2z m24.32 0h-3.2c-4.48 0-7.68-3.2-7.68-7.68s3.2-7.68 7.68-7.68h3.2c4.48 0 7.68 3.2 7.68 7.68s-3.84 7.68-7.68 7.68z m18.56 0c-4.48 0-7.68-3.2-7.68-7.68s3.2-7.68 7.68-7.68h3.2c4.48 0 7.68 3.2 7.68 7.68s-3.2 7.68-7.68 7.68h-3.2z m24.32 0h-3.2c-4.48 0-7.68-3.2-7.68-7.68s3.2-7.68 7.68-7.68h3.2c4.48 0 7.68 3.2 7.68 7.68s-3.2 7.68-7.68 7.68zM466.56 612.48c-4.48 0-7.68-3.2-7.68-7.68s3.2-7.68 7.68-7.68h1.28c4.48 0 7.68 3.2 7.68 7.68s-3.2 7.68-7.68 7.68h-1.28z" fill="#00ABE0" p-id="3804"></path><path d="M126.08 666.24h-1.28c-4.48 0-7.68-3.2-7.68-7.68s3.2-7.68 7.68-7.68h1.28c4.48 0 7.68 3.2 7.68 7.68s-3.2 7.68-7.68 7.68zM147.84 666.24h-3.2c-4.48 0-7.68-3.2-7.68-7.68s3.2-7.68 7.68-7.68h3.2c4.48 0 7.68 3.2 7.68 7.68s-3.84 7.68-7.68 7.68z m21.12 0H166.4c-4.48 0-7.68-3.2-7.68-7.68s3.2-7.68 7.68-7.68h3.2c4.48 0 7.68 3.2 7.68 7.68-0.64 4.48-3.84 7.68-8.32 7.68z m18.56 0c-4.48 0-7.68-3.2-7.68-7.68s3.2-7.68 7.68-7.68h3.2c4.48 0 7.68 3.2 7.68 7.68s-3.2 7.68-7.68 7.68h-3.2z m24.32 0h-3.2c-4.48 0-7.68-3.2-7.68-7.68s3.2-7.68 7.68-7.68h3.2c4.48 0 7.68 3.2 7.68 7.68s-3.2 7.68-7.68 7.68z m18.56 0c-4.48 0-7.68-3.2-7.68-7.68s3.2-7.68 7.68-7.68h3.2c4.48 0 7.68 3.2 7.68 7.68s-3.2 7.68-7.68 7.68H230.4z m24.32 0h-3.2c-4.48 0-7.68-3.2-7.68-7.68s3.2-7.68 7.68-7.68h3.2c4.48 0 7.68 3.2 7.68 7.68s-3.2 7.68-7.68 7.68z m18.56 0c-4.48 0-7.68-3.2-7.68-7.68s3.2-7.68 7.68-7.68h3.2c4.48 0 7.68 3.2 7.68 7.68s-3.2 7.68-7.68 7.68h-3.2z m24.32 0H294.4c-4.48 0-7.68-3.2-7.68-7.68s3.2-7.68 7.68-7.68h3.2c4.48 0 7.68 3.2 7.68 7.68s-3.2 7.68-7.68 7.68z m21.76 0h-3.2c-4.48 0-7.68-3.2-7.68-7.68s3.2-7.68 7.68-7.68h3.2c4.48 0 7.68 3.2 7.68 7.68s-3.84 7.68-7.68 7.68z m18.56 0c-4.48 0-7.68-3.2-7.68-7.68s3.2-7.68 7.68-7.68h3.2c4.48 0 7.68 3.2 7.68 7.68s-3.2 7.68-7.68 7.68h-3.2z m24.32 0h-3.2c-4.48 0-7.68-3.2-7.68-7.68s3.2-7.68 7.68-7.68h3.2c4.48 0 7.68 3.2 7.68 7.68s-3.2 7.68-7.68 7.68z m18.56 0c-4.48 0-7.68-3.2-7.68-7.68s3.2-7.68 7.68-7.68h3.2c4.48 0 7.68 3.2 7.68 7.68s-3.2 7.68-7.68 7.68h-3.2z m24.32 0h-3.2c-4.48 0-7.68-3.2-7.68-7.68s3.2-7.68 7.68-7.68h3.2c4.48 0 7.68 3.2 7.68 7.68s-3.2 7.68-7.68 7.68z m18.56 0c-4.48 0-7.68-3.2-7.68-7.68s3.2-7.68 7.68-7.68h3.2c4.48 0 7.68 3.2 7.68 7.68s-3.2 7.68-7.68 7.68h-3.2z m24.32 0h-3.2c-4.48 0-7.68-3.2-7.68-7.68s3.2-7.68 7.68-7.68h3.2c4.48 0 7.68 3.2 7.68 7.68s-3.2 7.68-7.68 7.68zM466.56 666.24c-4.48 0-7.68-3.2-7.68-7.68s3.2-7.68 7.68-7.68h1.28c4.48 0 7.68 3.2 7.68 7.68s-3.2 7.68-7.68 7.68h-1.28z" fill="#00ABE0" p-id="3805"></path><path d="M126.08 720h-1.28c-4.48 0-7.68-3.2-7.68-7.68s3.2-7.68 7.68-7.68h1.28c4.48 0 7.68 3.2 7.68 7.68s-3.2 7.68-7.68 7.68zM147.84 720h-3.2c-4.48 0-7.68-3.2-7.68-7.68s3.2-7.68 7.68-7.68h3.2c4.48 0 7.68 3.2 7.68 7.68 0 3.84-3.84 7.68-7.68 7.68z m21.12 0H166.4c-4.48 0-7.68-3.2-7.68-7.68s3.2-7.68 7.68-7.68h3.2c4.48 0 7.68 3.2 7.68 7.68s-3.84 7.68-8.32 7.68z m18.56 0c-4.48 0-7.68-3.2-7.68-7.68s3.2-7.68 7.68-7.68h3.2c4.48 0 7.68 3.2 7.68 7.68s-3.2 7.68-7.68 7.68h-3.2z m24.32 0h-3.2c-4.48 0-7.68-3.2-7.68-7.68s3.2-7.68 7.68-7.68h3.2c4.48 0 7.68 3.2 7.68 7.68s-3.2 7.68-7.68 7.68z m18.56 0c-4.48 0-7.68-3.2-7.68-7.68s3.2-7.68 7.68-7.68h3.2c4.48 0 7.68 3.2 7.68 7.68s-3.2 7.68-7.68 7.68H230.4z m24.32 0h-3.2c-4.48 0-7.68-3.2-7.68-7.68s3.2-7.68 7.68-7.68h3.2c4.48 0 7.68 3.2 7.68 7.68 0 3.84-3.2 7.68-7.68 7.68z m18.56 0c-4.48 0-7.68-3.2-7.68-7.68s3.2-7.68 7.68-7.68h3.2c4.48 0 7.68 3.2 7.68 7.68s-3.2 7.68-7.68 7.68h-3.2z m24.32 0H294.4c-4.48 0-7.68-3.2-7.68-7.68s3.2-7.68 7.68-7.68h3.2c4.48 0 7.68 3.2 7.68 7.68s-3.2 7.68-7.68 7.68z m21.76 0h-3.2c-4.48 0-7.68-3.2-7.68-7.68s3.2-7.68 7.68-7.68h3.2c4.48 0 7.68 3.2 7.68 7.68s-3.2 7.68-7.68 7.68z m18.56 0c-4.48 0-7.68-3.2-7.68-7.68s3.2-7.68 7.68-7.68h3.2c4.48 0 7.68 3.2 7.68 7.68s-3.2 7.68-7.68 7.68h-3.2z m24.32-0.64h-3.2c-4.48 0-7.68-3.2-7.68-7.68s3.2-7.68 7.68-7.68h3.2c4.48 0 7.68 3.2 7.68 7.68s-3.2 7.68-7.68 7.68z m18.56 0c-4.48 0-7.68-3.2-7.68-7.68s3.2-7.68 7.68-7.68h3.2c4.48 0 7.68 3.2 7.68 7.68s-3.2 7.68-7.68 7.68h-3.2z m24.32 0h-3.2c-4.48 0-7.68-3.2-7.68-7.68s3.2-7.68 7.68-7.68h3.2c4.48 0 7.68 3.2 7.68 7.68s-3.2 7.68-7.68 7.68z m18.56 0c-4.48 0-7.68-3.2-7.68-7.68s3.2-7.68 7.68-7.68h3.2c4.48 0 7.68 3.2 7.68 7.68s-3.2 7.68-7.68 7.68h-3.2z m24.32 0h-3.2c-4.48 0-7.68-3.2-7.68-7.68s3.2-7.68 7.68-7.68h3.2c4.48 0 7.68 3.2 7.68 7.68s-3.2 7.68-7.68 7.68zM466.56 719.36c-4.48 0-7.68-3.2-7.68-7.68s3.2-7.68 7.68-7.68h1.28c4.48 0 7.68 3.2 7.68 7.68s-3.2 7.68-7.68 7.68h-1.28z" fill="#00ABE0" p-id="3806"></path><path d="M126.08 773.12h-1.28c-4.48 0-7.68-3.2-7.68-7.68s3.2-7.68 7.68-7.68h1.28c4.48 0 7.68 3.2 7.68 7.68s-3.2 7.68-7.68 7.68zM147.84 773.12h-3.2c-4.48 0-7.68-3.2-7.68-7.68s3.2-7.68 7.68-7.68h3.2c4.48 0 7.68 3.2 7.68 7.68s-3.84 7.68-7.68 7.68z m21.12 0H166.4c-4.48 0-7.68-3.2-7.68-7.68s3.2-7.68 7.68-7.68h3.2c4.48 0 7.68 3.2 7.68 7.68s-3.84 7.68-8.32 7.68z m18.56 0c-4.48 0-7.68-3.2-7.68-7.68s3.2-7.68 7.68-7.68h3.2c4.48 0 7.68 3.2 7.68 7.68s-3.2 7.68-7.68 7.68h-3.2z m24.96 0h-3.2c-4.48 0-7.68-3.2-7.68-7.68s3.2-7.68 7.68-7.68h3.2c4.48 0 7.68 3.2 7.68 7.68s-3.84 7.68-7.68 7.68z m17.92 0c-4.48 0-7.68-3.2-7.68-7.68s3.2-7.68 7.68-7.68h3.2c4.48 0 7.68 3.2 7.68 7.68s-3.2 7.68-7.68 7.68H230.4z m24.96 0h-3.2c-4.48 0-7.68-3.2-7.68-7.68s3.2-7.68 7.68-7.68h3.2c4.48 0 7.68 3.2 7.68 7.68s-3.84 7.68-7.68 7.68z m17.92 0c-4.48 0-7.68-3.2-7.68-7.68s3.2-7.68 7.68-7.68h3.2c4.48 0 7.68 3.2 7.68 7.68s-3.2 7.68-7.68 7.68h-3.2z m24.96 0h-3.2c-4.48 0-7.68-3.2-7.68-7.68s3.2-7.68 7.68-7.68h3.2c4.48 0 7.68 3.2 7.68 7.68s-3.84 7.68-7.68 7.68z m21.12 0h-3.2c-4.48 0-7.68-3.2-7.68-7.68s3.2-7.68 7.68-7.68h3.2c4.48 0 7.68 3.2 7.68 7.68s-3.2 7.68-7.68 7.68z m18.56 0c-4.48 0-7.68-3.2-7.68-7.68s3.2-7.68 7.68-7.68h3.2c4.48 0 7.68 3.2 7.68 7.68s-3.2 7.68-7.68 7.68h-3.2z m24.32 0h-3.2c-4.48 0-7.68-3.2-7.68-7.68s3.2-7.68 7.68-7.68h3.2c4.48 0 7.68 3.2 7.68 7.68s-3.2 7.68-7.68 7.68z m18.56 0c-4.48 0-7.68-3.2-7.68-7.68s3.2-7.68 7.68-7.68h3.2c4.48 0 7.68 3.2 7.68 7.68s-3.2 7.68-7.68 7.68h-3.2z m24.32 0h-3.2c-4.48 0-7.68-3.2-7.68-7.68s3.2-7.68 7.68-7.68h3.2c4.48 0 7.68 3.2 7.68 7.68s-3.2 7.68-7.68 7.68z m18.56 0c-4.48 0-7.68-3.2-7.68-7.68s3.2-7.68 7.68-7.68h3.2c4.48 0 7.68 3.2 7.68 7.68s-3.2 7.68-7.68 7.68h-3.2z m24.32 0h-3.2c-4.48 0-7.68-3.2-7.68-7.68s3.2-7.68 7.68-7.68h3.2c4.48 0 7.68 3.2 7.68 7.68s-3.2 7.68-7.68 7.68zM466.56 773.12c-4.48 0-7.68-3.2-7.68-7.68s3.2-7.68 7.68-7.68h1.28c4.48 0 7.68 3.2 7.68 7.68s-3.2 7.68-7.68 7.68h-1.28z" fill="#00ABE0" p-id="3807"></path></svg>